# xmcd
#
# Track frame offsets:
# 150
# 20812
# 45917
# 63422
# 109515
# 131737
# 162100
# 182857
#
# Disc length: 2737 seconds
#
#
# Revision: 0
# Processed by: cddbd v1.5.2PL0 Copyright (c) Steve Scherf et al.
# Submitted via: Nero 7, 11, 10, 0 
#
DISCID=650aaf08
DTITLE=The Heartmurmurs - Same Old Blues [CD1]
DYEAR=2002
DGENRE=Blues
TTITLE0=Everyday I Have The Blues
TTITLE1=Woke Up This Morning
TTITLE2=Maxwell Street Is Gone
TTITLE3=Drifting Blues
TTITLE4=See See Rider
TTITLE5=Just A Little Love
TTITLE6=Same Old Blues
TTITLE7=You're Humbugging Me
EXTD=
EXTT0=Everyday I Have The Blues
EXTT1=Woke Up This Morning
EXTT2=Maxwell Street Is Gone
EXTT3=Drifting Blues
EXTT4=See See Rider
EXTT5=Just A Little Love
EXTT6=Same Old Blues
EXTT7=You're Humbugging Me
PLAYORDER=
